<?xml version="1.0" encoding="UTF-8" standalone="no"?>
<!DOCTYPE svg PUBLIC "-//W3C//DTD SVG 1.1//EN" "http://www.w3.org/Graphics/SVG/1.1/DTD/svg11.dtd">
<svg width="100%" height="100%" viewBox="0 0 512 512" version="1.1" xmlns="http://www.w3.org/2000/svg" xmlns:xlink="http://www.w3.org/1999/xlink" xml:space="preserve" xmlns:serif="http://www.serif.com/" style="fill-rule:evenodd;clip-rule:evenodd;stroke-linejoin:round;stroke-miterlimit:2;">
    <g>
        <g transform="matrix(1.27409,0,0,1.27409,1.18433,0.233164)">
            <path d="M179.889,100.879C170.049,113.682 153.835,119.987 129.5,120.473L117.983,120.703L117.979,123.438C117.897,176.813 138.231,254.937 165.764,307.031C171.686,318.235 199.553,367.168 200,367.146C200.46,367.124 225.129,323.961 232.126,310.938C261.437,256.375 282.008,178.903 282.016,123.047L282.017,120.703L270.5,120.473C246.165,119.987 229.951,113.682 220.111,100.879L217.634,97.656L200,97.656L182.366,97.656L179.889,100.879M211.719,130.078L211.719,132.813L207.422,132.813L203.125,132.813L203.125,157.813L200,157.813L196.875,157.813L196.875,145.313L196.875,132.813L192.578,132.813L188.281,132.813L188.281,130.078L188.281,127.344L211.719,127.344L211.719,130.078M207.534,178.168C209.234,178.814 209.457,179.254 209.003,181.065C208.31,183.824 208.236,183.875 206.368,182.876C203.53,181.357 197.049,181.809 196.094,183.594C194.752,186.101 196.348,187.88 201.688,189.827C216.896,195.372 212.822,210.278 196.651,208.258C191.198,207.576 189.568,206.447 190.231,203.808L190.73,201.819L194.779,202.875C199.461,204.097 202.809,203.613 203.91,201.556C205.41,198.753 204.446,197.859 196.26,194.465C180.831,188.066 191.814,172.191 207.534,178.168M196.017,235.534C197.4,240.038 198.732,244.96 198.977,246.471C199.64,250.552 200.327,249.852 201.837,243.561C202.584,240.449 203.917,235.527 204.799,232.623L206.402,227.344L215.39,227.344L215.916,236.133C216.206,240.967 216.662,247.822 216.93,251.367L217.418,257.813L214.178,257.813L210.938,257.813L210.842,253.711C210.576,242.315 209.695,233.25 209.076,235.547C208.729,236.836 207.16,242.285 205.59,247.656L202.734,257.422L200,257.644L197.266,257.866L194.769,249.441C193.395,244.807 191.783,239.258 191.186,237.109C190.102,233.205 190.101,233.21 189.487,245.508L188.873,257.813L185.843,257.813C183.479,257.813 182.811,257.512 182.808,256.445C182.805,255.693 183.215,248.838 183.718,241.211L184.633,227.344L193.502,227.344L196.017,235.534M207.534,278.168C209.234,278.814 209.457,279.254 209.003,281.065C208.31,283.824 208.236,283.875 206.368,282.876C203.53,281.357 197.049,281.809 196.094,283.594C194.752,286.101 196.348,287.88 201.688,289.827C216.896,295.372 212.822,310.278 196.651,308.258C191.198,307.576 189.568,306.447 190.231,303.808L190.73,301.819L194.779,302.875C199.461,304.097 202.809,303.613 203.91,301.556C205.41,298.753 204.446,297.859 196.26,294.465C180.831,288.066 191.814,272.191 207.534,278.168"/>
        </g>
        <rect x="241" y="35" width="30" height="60" style="fill-rule:nonzero;"/>
        <path d="M151,124.8C182.19,125.393 200.268,124.148 211,105.819L211,21.552C197.577,14.53 182.225,0.536 166.752,0.009C158.181,-0.283 151,6.491 151,15.067L151,124.8Z" style="fill-rule:nonzero;"/>
        <path d="M301,105.819C311.746,124.15 329.799,125.593 361,125L361,15.067C361,6.487 353.813,-0.291 345.238,0.01C329.781,0.551 314.427,14.572 301,21.59L301,105.819Z" style="fill-rule:nonzero;"/>
        <path d="M466,244.598L444.467,244.598C458.257,213.148 481.214,153.929 480.999,108.968C480.976,104.151 478.329,99.789 474.321,97.117L391,41.571L391,139.598C391,240.528 364.656,339.711 314.574,427.339L269.022,507.04C267.826,509.135 266.048,510.722 264.095,512C264.309,511.956 264.527,511.936 264.716,511.8C286.85,495.995 481,354.579 481,259.598C481,251.307 474.291,244.598 466,244.598Z" style="fill-rule:nonzero;"/>
        <path d="M242.978,507.04L197.426,427.339C147.344,339.711 121,240.528 121,139.598L121,41.571L37.68,97.118C33.672,99.79 31.025,104.152 31.002,108.969C30.787,153.93 53.744,213.148 67.534,244.599L46,244.599C37.709,244.599 31,251.308 31,259.599C31,354.579 225.15,495.995 247.284,511.801C247.473,511.936 247.69,511.957 247.905,512.001C245.951,510.722 244.173,509.134 242.978,507.04Z" style="fill-rule:nonzero;"/>
    </g>
</svg>
