<?xml version="1.0" encoding="UTF-8" standalone="no"?>
<!DOCTYPE svg PUBLIC "-//W3C//DTD SVG 1.1//EN" "http://www.w3.org/Graphics/SVG/1.1/DTD/svg11.dtd">
<svg width="100%" height="100%" viewBox="0 0 120 33" version="1.1" xmlns="http://www.w3.org/2000/svg" xmlns:xlink="http://www.w3.org/1999/xlink" xml:space="preserve" xmlns:serif="http://www.serif.com/" style="fill-rule:evenodd;clip-rule:evenodd;stroke-linejoin:round;stroke-miterlimit:2;">
    <g transform="matrix(0.24,0,0,0.24,0,0)">
        <g transform="matrix(11.3636,0,0,11.3636,6.49425,4.74487)">
            <g transform="matrix(1,0,0,1,0,-0.417549)">
                <path d="M19.035,2.22L19.035,3.516L16.899,3.516L16.899,9.78L15.255,9.78L15.255,3.516L13.167,3.516L13.167,2.22L19.035,2.22Z" style="fill-rule:nonzero;stroke:black;stroke-width:0.24px;"/>
                <path d="M22.419,2.088C22.907,2.088 23.339,2.136 23.715,2.232C24.091,2.328 24.427,2.452 24.723,2.604L24.351,3.828C24.023,3.668 23.707,3.546 23.403,3.462C23.099,3.378 22.803,3.336 22.515,3.336C22.131,3.336 21.833,3.412 21.621,3.564C21.409,3.716 21.303,3.92 21.303,4.176C21.303,4.44 21.395,4.64 21.579,4.776C21.763,4.912 22.059,5.044 22.467,5.172L23.187,5.4C23.787,5.6 24.257,5.884 24.597,6.252C24.937,6.62 25.107,7.072 25.107,7.608C25.107,7.928 25.047,8.228 24.927,8.508C24.807,8.788 24.627,9.032 24.387,9.24C24.147,9.448 23.847,9.612 23.487,9.732C23.127,9.852 22.707,9.912 22.227,9.912C21.323,9.912 20.495,9.728 19.743,9.36L20.115,8.136C20.459,8.304 20.795,8.434 21.123,8.526C21.451,8.618 21.795,8.664 22.155,8.664C22.579,8.664 22.899,8.586 23.115,8.43C23.331,8.274 23.439,8.056 23.439,7.776C23.439,7.68 23.421,7.586 23.385,7.494C23.349,7.402 23.283,7.314 23.187,7.23C23.091,7.146 22.961,7.062 22.797,6.978C22.633,6.894 22.419,6.812 22.155,6.732L21.519,6.516C21.239,6.42 20.983,6.308 20.751,6.18C20.519,6.052 20.321,5.904 20.157,5.736C19.993,5.568 19.865,5.37 19.773,5.142C19.681,4.914 19.635,4.648 19.635,4.344C19.635,4.016 19.695,3.714 19.815,3.438C19.935,3.162 20.113,2.924 20.349,2.724C20.585,2.524 20.877,2.368 21.225,2.256C21.573,2.144 21.971,2.088 22.419,2.088Z" style="fill-rule:nonzero;stroke:black;stroke-width:0.24px;"/>
                <path d="M26.883,2.22L28.959,2.22L30.039,5.664C30.087,5.816 30.137,5.98 30.189,6.156C30.241,6.332 30.291,6.508 30.339,6.684C30.387,6.86 30.431,7.032 30.471,7.2C30.511,7.368 30.543,7.524 30.567,7.668L30.615,7.668C30.639,7.54 30.671,7.39 30.711,7.218C30.751,7.046 30.795,6.868 30.843,6.684C30.891,6.5 30.939,6.32 30.987,6.144C31.035,5.968 31.079,5.808 31.119,5.664L32.163,2.22L34.239,2.22L34.803,9.78L33.255,9.78C33.207,8.948 33.159,8.116 33.111,7.284C33.063,6.452 33.031,5.612 33.015,4.764L33.003,3.78L32.967,3.78C32.863,4.22 32.749,4.68 32.625,5.16C32.501,5.64 32.383,6.06 32.271,6.42L31.203,9.78L29.931,9.78L28.839,6.408C28.703,5.976 28.575,5.52 28.455,5.04C28.335,4.56 28.239,4.14 28.167,3.78L28.131,3.78C28.131,4.068 28.127,4.37 28.119,4.686C28.111,5.002 28.101,5.316 28.089,5.628C28.077,5.94 28.065,6.246 28.053,6.546C28.041,6.846 28.027,7.12 28.011,7.368L27.867,9.78L26.343,9.78L26.883,2.22Z" style="fill-rule:nonzero;stroke:black;stroke-width:0.24px;"/>
                <path d="M38.847,2.088C39.335,2.088 39.767,2.136 40.143,2.232C40.519,2.328 40.855,2.452 41.151,2.604L40.779,3.828C40.451,3.668 40.135,3.546 39.831,3.462C39.527,3.378 39.231,3.336 38.943,3.336C38.559,3.336 38.261,3.412 38.049,3.564C37.837,3.716 37.731,3.92 37.731,4.176C37.731,4.44 37.823,4.64 38.007,4.776C38.191,4.912 38.487,5.044 38.895,5.172L39.615,5.4C40.215,5.6 40.685,5.884 41.025,6.252C41.365,6.62 41.535,7.072 41.535,7.608C41.535,7.928 41.475,8.228 41.355,8.508C41.235,8.788 41.055,9.032 40.815,9.24C40.575,9.448 40.275,9.612 39.915,9.732C39.555,9.852 39.135,9.912 38.655,9.912C37.751,9.912 36.923,9.728 36.171,9.36L36.543,8.136C36.887,8.304 37.223,8.434 37.551,8.526C37.879,8.618 38.223,8.664 38.583,8.664C39.007,8.664 39.327,8.586 39.543,8.43C39.759,8.274 39.867,8.056 39.867,7.776C39.867,7.68 39.849,7.586 39.813,7.494C39.777,7.402 39.711,7.314 39.615,7.23C39.519,7.146 39.389,7.062 39.225,6.978C39.061,6.894 38.847,6.812 38.583,6.732L37.947,6.516C37.667,6.42 37.411,6.308 37.179,6.18C36.947,6.052 36.749,5.904 36.585,5.736C36.421,5.568 36.293,5.37 36.201,5.142C36.109,4.914 36.063,4.648 36.063,4.344C36.063,4.016 36.123,3.714 36.243,3.438C36.363,3.162 36.541,2.924 36.777,2.724C37.013,2.524 37.305,2.368 37.653,2.256C38.001,2.144 38.399,2.088 38.847,2.088Z" style="fill-rule:nonzero;stroke:black;stroke-width:0.24px;"/>
            </g>
            <g transform="matrix(0.0202204,0,0,0.0202204,0.649673,0.374445)">
                <g transform="matrix(1.27409,0,0,1.27409,1.18433,0.233164)">
                    <path d="M179.889,100.879C170.049,113.682 153.835,119.987 129.5,120.473L117.983,120.703L117.979,123.438C117.897,176.813 138.231,254.937 165.764,307.031C171.686,318.235 199.553,367.168 200,367.146C200.46,367.124 225.129,323.961 232.126,310.938C261.437,256.375 282.008,178.903 282.016,123.047L282.017,120.703L270.5,120.473C246.165,119.987 229.951,113.682 220.111,100.879L217.634,97.656L200,97.656L182.366,97.656L179.889,100.879M211.719,130.078L211.719,132.813L207.422,132.813L203.125,132.813L203.125,157.813L200,157.813L196.875,157.813L196.875,145.313L196.875,132.813L192.578,132.813L188.281,132.813L188.281,130.078L188.281,127.344L211.719,127.344L211.719,130.078M207.534,178.168C209.234,178.814 209.457,179.254 209.003,181.065C208.31,183.824 208.236,183.875 206.368,182.876C203.53,181.357 197.049,181.809 196.094,183.594C194.752,186.101 196.348,187.88 201.688,189.827C216.896,195.372 212.822,210.278 196.651,208.258C191.198,207.576 189.568,206.447 190.231,203.808L190.73,201.819L194.779,202.875C199.461,204.097 202.809,203.613 203.91,201.556C205.41,198.753 204.446,197.859 196.26,194.465C180.831,188.066 191.814,172.191 207.534,178.168M196.017,235.534C197.4,240.038 198.732,244.96 198.977,246.471C199.64,250.552 200.327,249.852 201.837,243.561C202.584,240.449 203.917,235.527 204.799,232.623L206.402,227.344L215.39,227.344L215.916,236.133C216.206,240.967 216.662,247.822 216.93,251.367L217.418,257.813L214.178,257.813L210.938,257.813L210.842,253.711C210.576,242.315 209.695,233.25 209.076,235.547C208.729,236.836 207.16,242.285 205.59,247.656L202.734,257.422L200,257.644L197.266,257.866L194.769,249.441C193.395,244.807 191.783,239.258 191.186,237.109C190.102,233.205 190.101,233.21 189.487,245.508L188.873,257.813L185.843,257.813C183.479,257.813 182.811,257.512 182.808,256.445C182.805,255.693 183.215,248.838 183.718,241.211L184.633,227.344L193.502,227.344L196.017,235.534M207.534,278.168C209.234,278.814 209.457,279.254 209.003,281.065C208.31,283.824 208.236,283.875 206.368,282.876C203.53,281.357 197.049,281.809 196.094,283.594C194.752,286.101 196.348,287.88 201.688,289.827C216.896,295.372 212.822,310.278 196.651,308.258C191.198,307.576 189.568,306.447 190.231,303.808L190.73,301.819L194.779,302.875C199.461,304.097 202.809,303.613 203.91,301.556C205.41,298.753 204.446,297.859 196.26,294.465C180.831,288.066 191.814,272.191 207.534,278.168"/>
                </g>
                <rect x="241" y="35" width="30" height="60" style="fill-rule:nonzero;"/>
                <path d="M151,124.8C182.19,125.393 200.268,124.148 211,105.819L211,21.552C197.577,14.53 182.225,0.536 166.752,0.009C158.181,-0.283 151,6.491 151,15.067L151,124.8Z" style="fill-rule:nonzero;"/>
                <path d="M301,105.819C311.746,124.15 329.799,125.593 361,125L361,15.067C361,6.487 353.813,-0.291 345.238,0.01C329.781,0.551 314.427,14.572 301,21.59L301,105.819Z" style="fill-rule:nonzero;"/>
                <path d="M466,244.598L444.467,244.598C458.257,213.148 481.214,153.929 480.999,108.968C480.976,104.151 478.329,99.789 474.321,97.117L391,41.571L391,139.598C391,240.528 364.656,339.711 314.574,427.339L269.022,507.04C267.826,509.135 266.048,510.722 264.095,512C264.309,511.956 264.527,511.936 264.716,511.8C286.85,495.995 481,354.579 481,259.598C481,251.307 474.291,244.598 466,244.598Z" style="fill-rule:nonzero;"/>
                <path d="M242.978,507.04L197.426,427.339C147.344,339.711 121,240.528 121,139.598L121,41.571L37.68,97.118C33.672,99.79 31.025,104.152 31.002,108.969C30.787,153.93 53.744,213.148 67.534,244.599L46,244.599C37.709,244.599 31,251.308 31,259.599C31,354.579 225.15,495.995 247.284,511.801C247.473,511.936 247.69,511.957 247.905,512.001C245.951,510.722 244.173,509.134 242.978,507.04Z" style="fill-rule:nonzero;"/>
            </g>
        </g>
    </g>
</svg>
